<?xml version="1.0" encoding="utf-8"?>
<!-- Generator: Adobe Illustrator 19.2.1, SVG Export Plug-In . SVG Version: 6.00 Build 0)  -->
<svg version="1.1" id="Layer_1" xmlns="http://www.w3.org/2000/svg" xmlns:xlink="http://www.w3.org/1999/xlink" x="0px" y="0px"
	 viewBox="0 0 168 75" enable-background="new 0 0 168 75" xml:space="preserve">
<g>
	<path fill="#00ADEE" d="M12.6,1.3c1.8,0,3.2,1.5,3.2,3.2v8.7c0,1.8-1.5,3.2-3.2,3.2H3.8c-1.8,0-3.2-1.5-3.2-3.2V4.6
		c0-1.8,1.5-3.2,3.2-3.2H12.6z M12.7,25.3h-9c-1.8,0-3.3,1.5-3.3,3.3v46h12.4c1.8,0,3.3-1.5,3.3-3.3V28.6
		C16,26.8,14.5,25.3,12.7,25.3z"/>
	<path fill="#EBEAEA" d="M68.8,3.8v9.6c0,1.8-1.5,3.3-3.3,3.3l-17.5,0c-6.3,0-9.1,2.2-9.1,7.5V33H54c1.8,0,3.3,1.5,3.3,3.3v7.5
		c0,1.8-1.5,3.3-3.3,3.3H42c-1.9,0-3.2,1.4-3.2,3.3L39,71.2c0,1.8-1.5,3.3-3.3,3.3H22.9l0.2-52.5c0-10.2,5.6-20.6,19.5-21.1
		l22.8-0.5C67.3,0.4,68.8,1.9,68.8,3.8z M88,1h-9c-1.8,0-3.3,1.5-3.3,3.3v70.2H88c1.8,0,3.3-1.5,3.3-3.3V4.3C91.3,2.5,89.9,1,88,1z
		 M140.7,22.1c0-10.2-5.6-20.6-19.5-21.1l-19.5-0.5c-1.8,0-3.3,1.5-3.3,3.3v9.6c0,1.8,1.5,3.3,3.3,3.3l14.3,0c6.3,0,9.1,2.2,9.1,7.5
		l-0.3,50.4h12.8c1.8,0,3.3-1.5,3.3-3.3L140.7,22.1z M164.3,0.5c0,0-20.7,0.5-23.4,0.5c-2.4,0.2-2.7,1.8-1.1,3.1
		c5.3,4.6,6.1,12.1,6.1,12.4l18.5,0.2c1.9,0,3.3-1.5,3.3-3.3V3.8C167.6,1.9,166.1,0.5,164.3,0.5z"/>
</g>
</svg>
